<svg id="bar_chart" data-name="bar chart" xmlns="http://www.w3.org/2000/svg" width="1280" height="704" viewBox="0 0 1280 704">
  <metadata><?xpacket begin="﻿" id="W5M0MpCehiHzreSzNTczkc9d"?>
<x:xmpmeta xmlns:x="adobe:ns:meta/" x:xmptk="Adobe XMP Core 5.6-c138 79.159824, 2016/09/14-01:09:01        ">
   <rdf:RDF xmlns:rdf="http://www.w3.org/1999/02/22-rdf-syntax-ns#">
      <rdf:Description rdf:about=""
            xmlns:xmp="http://ns.adobe.com/xap/1.0/">
         <xmp:CreatorTool>Adobe Photoshop CC 2017 (Windows)</xmp:CreatorTool>
      </rdf:Description>
   </rdf:RDF>
</x:xmpmeta>
                                                                                                    
                                                                                                    
                                                                                                    
                                                                                                    
                                                                                                    
                                                                                                    
                                                                                                    
                                                                                                    
                                                                                                    
                                                                                                    
                                                                                                    
                                                                                                    
                                                                                                    
                                                                                                    
                                                                                                    
                                                                                                    
                                                                                                    
                                                                                                    
                                                                                                    
                                                                                                    
                           
<?xpacket end="w"?></metadata>
<defs>
    <style>
      .cls-1, .cls-2, .cls-3, .cls-4 {
        fill: none;
        stroke: #000;
        stroke-width: 1.829px;
      }

      .cls-1, .cls-2, .cls-4 {
        fill-rule: evenodd;
      }

      .cls-2 {
        stroke-dasharray: 3.657 3.657;
      }

      .cls-4 {
        stroke-dasharray: 7.314 3.657;
      }
    </style>
  </defs>
  <path class="cls-1" d="M24.318,389.486v130.72H198.705"/>
  <path class="cls-1" d="M30.734,473.1s35.136-4.206,73.539-31.577c8.039-5.73,17.291-11.16,24.946-18.516,8.453-8.124,15.36-18.157,22.016-28.837"/>
  <path class="cls-1" d="M142.281,398.2s11.263-6.742,12.431-5.858-1.537,7.712.106,11.551"/>
  <path id="Shape_47_copy_4" data-name="Shape 47 copy 4" class="cls-1" d="M168.288,427.814c-0.356,16.068.823,32.141,0.466,48.208,0.915,14.726-.368,41.657,0,39.026-5.352-.766-12.241.456-17.592-0.309V501.274c0-16.977.838-35.169,0.838-53.373,0.029-6.695-1.091-14,.158-20.7,4.1-.383,12.563-0.156,16.666-0.538Q168.556,427.24,168.288,427.814Z"/>
  <path id="Shape_47_copy_5" data-name="Shape 47 copy 5" class="cls-1" d="M120.271,442.251c0.351,13.382-.81,26.769-0.459,40.151-0.9,12.264.363,34.695,0,32.5,5.272-.637,12.059.38,17.331-0.257V503.433c0-14.139-.825-29.291-0.825-44.452-0.03-5.576,1.074-11.662-.157-17.237-4.041-.319-12.376-0.13-16.418-0.449Z"/>
  <path id="Shape_47_copy_6" data-name="Shape 47 copy 6" class="cls-1" d="M90.4,514.3c0.351-10.4-.81-20.795-0.459-31.191-0.9-9.528.363-26.953,0-25.251,5.272,0.5,12.058-.3,17.33.2v8.712c0,10.984-.825,22.755-0.825,34.534-0.029,4.331,1.074,9.059-.156,13.39-4.042.248-12.376,0.1-16.418,0.349Z"/>
  <path id="Shape_47_copy_7" data-name="Shape 47 copy 7" class="cls-1" d="M79.043,515.08c-0.352-8.073.81-16.149,0.459-24.223,0.9-7.4-.363-20.931,0-19.609-5.272.384-12.059-.229-17.331,0.155v6.766c0,8.53.825,17.671,0.825,26.818,0.029,3.364-1.074,7.036.156,10.4,4.042,0.192,12.376.078,16.418,0.27Z"/>
  <path id="Shape_47_copy_8" data-name="Shape 47 copy 8" class="cls-1" d="M54.053,484.365c-0.351,5.64.81,11.282,0.458,16.923,0.9,5.169-.363,14.623,0,13.7-5.272-.268-12.059.161-17.33-0.108v-4.727c0-5.959.825-12.346,0.825-18.736,0.029-2.35-1.074-4.915.156-7.265,4.042-.134,12.376-0.055,16.418-0.189Z"/>
  <path class="cls-1" d="M541.921,688.759s39.489,1.188,56.133-49.734c10.181-31.147,19.249-53.161,36.634-52.4,12.919,0.567,22.5,17.763,30.431,52.4,9.3,40.639,46.232,50.842,54.065,50.842"/>
  <path class="cls-1" d="M594.7,651.493v39.928"/>
  <path class="cls-1" d="M619.6,595.593v95.828"/>
  <path class="cls-1" d="M644.494,592.266v99.155"/>
  <path class="cls-1" d="M669.391,657.482v33.606"/>
  <path class="cls-1" d="M543.249,554.667V690.423h176.6"/>
  <path class="cls-1" d="M1093.96,457.74l-57.94-124.375-57.188,127.72"/>
  <path class="cls-1" d="M1097.75,456.7s-46.34,42.516-122.516,3.421C975.234,460.121,1034.42,398.889,1097.75,456.7Z"/>
  <path class="cls-2" d="M1034.69,453.542V330.218"/>
  <path class="cls-1" d="M1028.86,344.647a10.823,10.823,0,0,0,13.63-.472"/>
  <path class="cls-2" d="M980.465,457.79l111.825-2.828"/>
  <g id="decistion_tree" data-name="decistion tree">
    <path class="cls-1" d="M1113.18,152.749l34.07,0.455-0.91-20.482-31.34-.455Z"/>
    <path class="cls-1" d="M1080.03,188.252V172.321l103.56-.455-0.91,15.931"/>
    <path class="cls-1" d="M1129.08,152.749l0.46,29.13"/>
    <path class="cls-1" d="M1060.49,191.893h37.7l-0.9,20.482-38.61-.91Z"/>
    <path class="cls-1" d="M1120.45,190.072l29.07-.455v20.027l-29.52-.455-0.46-19.572"/>
    <path class="cls-1" d="M1165.88,190.983l36.79,0.455,1.82,21.393-38.61.455v-22.3Z"/>
    <path class="cls-1" d="M1074.12,213.286l-0.45,16.841"/>
    <path class="cls-1" d="M1039.6,246.058l0.91-15.476,55.87,1.366-0.46,9.558"/>
    <path class="cls-1" d="M1024.61,251.52h30.43l-0.45,20.027-29.53.91Z"/>
    <path class="cls-1" d="M1079.12,247.423h24.07V267l-25.44.455Z"/>
    <path class="cls-1" d="M1123.18,231.492l26.34,0.911-0.45,17.751h-26.35Z"/>
    <path class="cls-1" d="M1160.42,247.423h25.44l-0.45,19.117h-24.99V247.423Z"/>
    <path class="cls-1" d="M1207.66,250.609l30.89,0.911V272l-30.89-.91V250.609Z"/>
    <path class="cls-1" d="M1188.59,211.465l1.36,18.662"/>
    <path class="cls-1" d="M1168.6,240.6V230.582l54.05,0.91,1.37,14.11"/>
    <path class="cls-1" d="M1134.99,207.824l0.45,23.668"/>
  </g>
  <path class="cls-1" d="M1114.82,564.165l12.09-29.927a33.009,33.009,0,0,1,22.37,0l9.58,21.018"/>
  <circle class="cls-3" cx="1137.41" cy="523.282" r="8.22"/>
  <path id="Shape_7_copy" data-name="Shape 7 copy" class="cls-1" d="M1148.59,582.213l9.13-26.957a33,33,0,0,1,22.37,0l9.58,28.1"/>
  <circle id="Ellipse_1_copy" data-name="Ellipse 1 copy" class="cls-3" cx="1168.235" cy="544.282" r="8.205"/>
  <path id="Shape_7_copy_2" data-name="Shape 7 copy 2" class="cls-1" d="M1175.75,543.833l3.42-8.453a33.009,33.009,0,0,1,22.37,0l9.58,32.212"/>
  <circle id="Ellipse_1_copy_2" data-name="Ellipse 1 copy 2" class="cls-3" cx="1189.66" cy="524.407" r="8.22"/>
  <path id="Polygon_1_copy_2" data-name="Polygon 1 copy 2" class="cls-1" d="M948.423,213.129a51.793,51.793,0,0,1-36.74,37.3c-0.1.027-.2,0.051-0.3,0.078L899.865,201.7l0.291-.009v0Z"/>
  <path id="Polygon_1_copy" data-name="Polygon 1 copy" class="cls-1" d="M891.424,193.313l12.384,52.531a51.906,51.906,0,1,1,40.78-50.719,52.287,52.287,0,0,1-1.069,10.541Z"/>
  <path class="cls-1" d="M848.384,168.922l40.085-25.684"/>
  <path id="Shape_17_copy" data-name="Shape 17 copy" class="cls-1" d="M844.756,178.62l54.009-34.42"/>
  <path id="Shape_17_copy_2" data-name="Shape 17 copy 2" class="cls-1" d="M842.566,188.176l65.879-41.985"/>
  <path id="Shape_17_copy_3" data-name="Shape 17 copy 3" class="cls-1" d="M841.949,196.73l74.436-47.438"/>
  <path id="Shape_17_copy_4" data-name="Shape 17 copy 4" class="cls-1" d="M843.283,204.429l79.391-50.6"/>
  <path id="Shape_17_copy_5" data-name="Shape 17 copy 5" class="cls-1" d="M845.022,211.988S906.5,172.3,928,158.6"/>
  <path id="Shape_17_copy_6" data-name="Shape 17 copy 6" class="cls-1" d="M847.356,218.978l86.371-55.245"/>
  <path id="Shape_17_copy_7" data-name="Shape 17 copy 7" class="cls-1" d="M851.487,223.663l40.367-25.647m7.224-4.589,37.752-23.986"/>
  <path id="Shape_17_copy_8" data-name="Shape 17 copy 8" class="cls-1" d="M855.108,229.37l38.137-23.984m15.376-9.67,31.054-19.53"/>
  <path class="cls-1" d="M884.331,376.729"/>
  <path id="Shape_17_copy_9" data-name="Shape 17 copy 9" class="cls-1" d="M860.577,234.21l34.27-21.841M917.5,197.933l24.6-15.674"/>
  <path id="Shape_17_copy_11" data-name="Shape 17 copy 11" class="cls-1" d="M866.808,238.4l29.85-19.024m30.22-19.259,16.474-10.5"/>
  <path id="Shape_17_copy_13" data-name="Shape 17 copy 13" class="cls-1" d="M874.01,241.97l24.343-15.514m37.719-24.038,7.1-4.525"/>
  <path id="Shape_17_copy_14" data-name="Shape 17 copy 14" class="cls-1" d="M882.78,244.417c6.217-3.962,7.376-4.624,16.81-10.636"/>
  <path id="Shape_85_copy_5" data-name="Shape 85 copy 5" class="cls-1" d="M673.772,181.4a17.543,17.543,0,0,0-3.413,14.958,14.263,14.263,0,0,0,13.859,9.658c8.953,0,15.045-5.466,15.514-14.75,0.081-3.021-2.943-15.135-16.341-14.481A21.314,21.314,0,0,0,673.772,181.4Z"/>
  <path class="cls-1" d="M641.519,219.734a14.944,14.944,0,0,0-2.925,12.778,12.223,12.223,0,0,0,11.879,8.249c7.673,0,12.9-4.669,13.3-12.6,0.07-2.58-2.522-12.928-14.006-12.369A18.291,18.291,0,0,0,641.519,219.734Z"/>
  <path id="Shape_85_copy_4" data-name="Shape 85 copy 4" class="cls-1" d="M719.3,199.94a13.83,13.83,0,0,0-2.716,11.842,11.348,11.348,0,0,0,11.03,7.646c7.125,0,11.974-4.327,12.348-11.677,0.064-2.392-2.343-11.982-13.006-11.465A17,17,0,0,0,719.3,199.94Z"/>
  <path id="Shape_85_copy_2" data-name="Shape 85 copy 2" class="cls-1" d="M732.774,162.5a10.766,10.766,0,0,1,2.02,9.038,8.451,8.451,0,0,1-8.2,5.835c-5.3,0-8.9-3.3-9.182-8.912-0.048-1.825,1.742-9.144,9.672-8.749A12.516,12.516,0,0,1,732.774,162.5Z"/>
  <path id="Shape_85_copy_3" data-name="Shape 85 copy 3" class="cls-1" d="M694.52,140.333a11.975,11.975,0,0,0-2.369,10.284,9.893,9.893,0,0,0,9.617,6.64c6.212,0,10.439-3.758,10.764-10.141,0.057-2.077-2.042-10.406-11.338-9.956A14.837,14.837,0,0,0,694.52,140.333Z"/>
  <path id="Shape_85_copy" data-name="Shape 85 copy" class="cls-1" d="M640.483,150.308a10.764,10.764,0,0,0-2.02,9.037,8.452,8.452,0,0,0,8.2,5.836c5.3,0,8.9-3.3,9.182-8.912,0.048-1.825-1.742-9.144-9.671-8.749A12.505,12.505,0,0,0,640.483,150.308Z"/>
  <path class="cls-1" d="M696.076,196.876c3.8,0,17.738,5.2,22.553,7.314"/>
  <path class="cls-1" d="M697.3,186.514c5.03-3.772,22.553-14.628,22.553-14.628"/>
  <path class="cls-1" d="M689.371,179.2l7.315-24.99"/>
  <path class="cls-1" d="M675.352,182.248c-5.579-4.6-20.882-15.332-23.771-19.5"/>
  <path class="cls-1" d="M675.962,200.533c-1.938,3.876-17.067,20.724-17.067,20.724"/>
  <path id="sq1" class="cls-1" d="M50.444,204.623c0,14.969-.463,30.715-0.463,45.282l11.265-.433,0.926-45.282-12.19.289Z"/>
  <path id="sq2" class="cls-1" d="M67.511,203.139c0,5.788-.463,11.876-0.463,17.509l11.265-.168q0.463-8.752.926-17.509l-12.19.112Z"/>
  <g id="Sq2l">
    <path class="cls-1" d="M72.838,219.124l4.368-2.743"/>
    <path class="cls-1" d="M69.181,219.124l8.229-6.5"/>
    <path class="cls-1" d="M68.267,216.381l8.94-7.01"/>
    <path class="cls-1" d="M68.47,212.521l8.127-5.892"/>
    <path class="cls-1" d="M68.368,209.067l6.3-5.588"/>
  </g>
  <path id="sq3" class="cls-1" d="M87.162,188.952h12.8l-0.61,29.257H87.162V188.952Z"/>
  <path id="sq4" class="cls-1" d="M116.711,243.7c-0.286-10.084.657-20.171,0.372-30.255,0.418-5.278,1.174-11.9-.428-17.288-0.428-2.4.856-4.8,0.428-7.2-4.281.481-9.792,0.961-14.074,1.441v7.2c0,10.655.671,22.072,0.671,33.5,1,4.2-.385,8.4.614,12.606,3.282,0.24,9.563.48,12.845,0.72Q116.925,244.059,116.711,243.7Z"/>
  <path id="sq5" class="cls-1" d="M122.977,234.2c0,4.79-.463,9.828-0.463,14.49l11.265-.139q0.462-7.244.926-14.49l-12.191.092Z"/>
  <path id="sq6" class="cls-1" d="M141.263,231.971c0,12.174-.463,24.981-0.463,36.829l11.265-.352q0.462-18.412.925-36.829l-12.19.235Z"/>
  <path id="sq7" class="cls-1" d="M172.255,327.721c-0.262-11.5.6-23,.341-34.5,0.383-6.019,1.076-13.57-.392-19.717-0.393-2.738.784-5.477,0.392-8.215-3.924.547-8.976,1.1-12.9,1.643v8.215c0,12.151.615,25.172,0.615,38.2,0.915,4.791-.353,9.585.563,14.377,3.008,0.273,8.765.547,11.774,0.821Z"/>
  <path id="sq8" class="cls-1" d="M191.091,322.81c-0.286-3.324.658-6.65,0.372-9.974,0.387-1.607-1.53-10.9,0-8.074-4.286.158-9.805,0.317-14.092,0.475v2.375c0,3.512.671,7.276,0.671,11.042,1,1.385-.385,2.771.616,4.156,3.286,0.079,9.575.158,12.861,0.238Z"/>
  <path id="sq9" class="cls-1" d="M193.644,239.187c0.283,12.078-.653,24.16-0.37,36.239-0.415,6.321-1.164,14.251.425,20.708,0.425,2.875-.849,5.752-0.425,8.628,4.248-.575,9.716-1.151,13.964-1.726v-8.628c0-12.762-.665-26.438-0.665-40.122-0.991-5.033.382-10.067-.609-15.1-3.257-.288-9.488-0.576-12.745-0.863Q193.432,238.754,193.644,239.187Z"/>
  <path id="sq10" class="cls-1" d="M216.234,191.858c0,16.166-.463,33.172-0.463,48.9l11.265-.467q0.464-24.45.926-48.9l-12.191.312Z"/>
  <path id="sq11" class="cls-1" d="M233.3,175.343c0,14.17-.463,29.077-0.463,42.866L244.1,217.8q0.462-21.43.926-42.867l-12.191.273Z"/>
  <path class="cls-1" d="M56.076,188.343v17.676"/>
  <path class="cls-1" d="M56.076,248.686L57.9,298.057"/>
  <path class="cls-1" d="M129.219,247.467l1.829,31.695"/>
  <path id="Shape_33_copy_2" data-name="Shape 33 copy 2" class="cls-1" d="M111.543,242.59l0.609,14.576"/>
  <path id="Shape_33_copy_3" data-name="Shape 33 copy 3" class="cls-1" d="M109.714,174.933l0.61,14.576"/>
  <path id="Shape_33_copy_6" data-name="Shape 33 copy 6" class="cls-1" d="M94.476,174.933l0.609,14.576"/>
  <path id="Shape_33_copy_7" data-name="Shape 33 copy 7" class="cls-1" d="M93.867,218.209l0.61,14.577"/>
  <path id="Shape_33_copy_5" data-name="Shape 33 copy 5" class="cls-1" d="M74.362,220.038l0.609,14.576"/>
  <path id="Shape_33_copy_4" data-name="Shape 33 copy 4" class="cls-1" d="M73.752,158.476l0.61,45.052"/>
  <path id="Shape_33_copy" data-name="Shape 33 copy" class="cls-1" d="M128,204.19l1.829,31.7"/>
  <path class="cls-1" d="M184.076,290.743l-0.609,14.019"/>
  <path id="Shape_38_copy_3" data-name="Shape 38 copy 3" class="cls-1" d="M148.114,217.6l-0.609,14.019"/>
  <path id="Shape_38_copy_4" data-name="Shape 38 copy 4" class="cls-1" d="M147.505,266.971L146.9,280.99"/>
  <path class="cls-1" d="M184.076,323.048l1.219,11.581"/>
  <path class="cls-1" d="M199.314,238.933l0.61-12.19"/>
  <path class="cls-1" d="M199.924,304.152v13.41"/>
  <path class="cls-1" d="M222.476,193.219l-1.219-35.352"/>
  <path class="cls-1" d="M238.324,176.152l-1.219-24.99"/>
  <path class="cls-1" d="M238.933,216.99l0.61,6.7"/>
  <path id="Shape_46_copy" data-name="Shape 46 copy" class="cls-1" d="M223.086,240.152l0.609,6.705"/>
  <path class="cls-1" d="M147.178,266.99l4.526-5.172"/>
  <path class="cls-1" d="M142.869,265.912l8.4-8.188"/>
  <path class="cls-1" d="M142.007,262.034l9.05-6.68"/>
  <path class="cls-1" d="M142.007,257.939l9.05-6.249"/>
  <path class="cls-1" d="M141.576,253.845l9.05-5.387"/>
  <path class="cls-1" d="M142.653,249.751l9.913-6.465"/>
  <path class="cls-1" d="M142.222,247.165l10.128-7.111"/>
  <path class="cls-1" d="M141.576,244.579l11.636-8.4"/>
  <path class="cls-1" d="M142.869,238.084l9.266-5.6"/>
  <path id="Shape_71_copy" data-name="Shape 71 copy" class="cls-1" d="M235.491,216.535l8.134-7.087"/>
  <path class="cls-1" d="M234.272,213.487l8.134-7.087"/>
  <path class="cls-1" d="M234.272,209.138l8.3-6.442"/>
  <path class="cls-1" d="M233.329,205.974l8.617-8.375"/>
  <path class="cls-1" d="M233.26,200.89l9.825-7.49"/>
  <path class="cls-1" d="M234.192,195.644l9.019-8.134"/>
  <path class="cls-1" d="M233.421,191.422l10.55-10.067"/>
  <path class="cls-1" d="M234.192,186.705l9.744-8.617"/>
  <path class="cls-1" d="M233.225,182.633l8.215-7.892"/>
  <path id="Shape_71_copy_2" data-name="Shape 71 copy 2" class="cls-1" d="M106.334,241.125l9.719-7.09"/>
  <path id="Shape_71_copy_2-2" data-name="Shape 71 copy 2" class="cls-1" d="M104.877,238.076l9.72-7.09"/>
  <path id="Shape_72_copy" data-name="Shape 72 copy" class="cls-1" d="M104.877,233.725l9.912-6.445"/>
  <path id="Shape_73_copy" data-name="Shape 73 copy" class="cls-1" d="M103.617,230.815l11.513-8.33"/>
  <path id="Shape_74_copy" data-name="Shape 74 copy" class="cls-1" d="M103.668,225.473l11.74-7.493"/>
  <path id="Shape_75_copy" data-name="Shape 75 copy" class="cls-1" d="M104.172,220.834l10.777-8.137"/>
  <path id="Shape_76_copy" data-name="Shape 76 copy" class="cls-1" d="M103.86,217.22l12.606-10.071"/>
  <path id="Shape_77_copy" data-name="Shape 77 copy" class="cls-1" d="M104.781,211.282l11.644-8.621"/>
  <path id="Shape_78_copy" data-name="Shape 78 copy" class="cls-1" d="M103.627,207.062l11.452-7.75"/>
  <path id="Shape_78_copy_2" data-name="Shape 78 copy 2" class="cls-1" d="M103.627,202.8l11.452-7.751"/>
  <path id="Shape_78_copy_3" data-name="Shape 78 copy 3" class="cls-1" d="M103.627,197.31l11.452-7.75"/>
  <path class="cls-4" d="M83.5,124.343c0,60.819,1.829,127.026,1.829,190.781"/>
  <path id="Shape_84_copy" data-name="Shape 84 copy" class="cls-1" d="M211.505,139.581c0,60.82,1.828,127.026,1.828,190.781"/>
  <path id="Shape_33_copy_8" data-name="Shape 33 copy 8" class="cls-1" d="M167.517,326.457l0.559,16.623"/>
  <path id="Shape_33_copy_8-2" data-name="Shape 33 copy 8" class="cls-1" d="M165.841,249.3l0.559,16.624"/>
  <path id="Shape_71_copy_3" data-name="Shape 71 copy 3" class="cls-1" d="M162.743,324.785l8.909-8.086"/>
  <path id="Shape_71_copy_3-2" data-name="Shape 71 copy 3" class="cls-1" d="M161.407,321.308l8.91-8.086"/>
  <path id="Shape_72_copy_2" data-name="Shape 72 copy 2" class="cls-1" d="M161.407,316.346L170.493,309"/>
  <path id="Shape_73_copy_2" data-name="Shape 73 copy 2" class="cls-1" d="M160.252,313.027l10.554-9.5"/>
  <path id="Shape_74_copy_2" data-name="Shape 74 copy 2" class="cls-1" d="M160.3,306.934l10.761-8.545"/>
  <path id="Shape_75_copy_2" data-name="Shape 75 copy 2" class="cls-1" d="M160.76,301.644l9.88-9.28"/>
  <path id="Shape_76_copy_2" data-name="Shape 76 copy 2" class="cls-1" d="M160.475,297.522l11.556-11.486"/>
  <path id="Shape_77_copy_2" data-name="Shape 77 copy 2" class="cls-1" d="M161.319,290.75l10.674-9.832"/>
  <path id="Shape_78_copy_4" data-name="Shape 78 copy 4" class="cls-1" d="M160.262,285.938l10.5-8.839"/>
  <path id="Shape_78_copy_4-2" data-name="Shape 78 copy 4" class="cls-1" d="M160.262,281.072l10.5-8.839"/>
  <path id="Shape_78_copy_4-3" data-name="Shape 78 copy 4" class="cls-1" d="M160.262,274.815l10.5-8.839"/>
</svg>
