<svg id="bar_chart" data-name="bar chart" xmlns="http://www.w3.org/2000/svg" width="1279.95" height="703.973" viewBox="0 0 2100 1155">
  <metadata><?xpacket begin="﻿" id="W5M0MpCehiHzreSzNTczkc9d"?>
<x:xmpmeta xmlns:x="adobe:ns:meta/" x:xmptk="Adobe XMP Core 5.6-c138 79.159824, 2016/09/14-01:09:01        ">
   <rdf:RDF xmlns:rdf="http://www.w3.org/1999/02/22-rdf-syntax-ns#">
      <rdf:Description rdf:about=""
            xmlns:xmp="http://ns.adobe.com/xap/1.0/">
         <xmp:CreatorTool>Adobe Photoshop CC 2017 (Windows)</xmp:CreatorTool>
      </rdf:Description>
   </rdf:RDF>
</x:xmpmeta>
                                                                                                    
                                                                                                    
                                                                                                    
                                                                                                    
                                                                                                    
                                                                                                    
                                                                                                    
                                                                                                    
                                                                                                    
                                                                                                    
                                                                                                    
                                                                                                    
                                                                                                    
                                                                                                    
                                                                                                    
                                                                                                    
                                                                                                    
                                                                                                    
                                                                                                    
                                                                                                    
                           
<?xpacket end="w"?></metadata>
<defs>
    <style>
      .cls-1, .cls-2, .cls-3, .cls-4 {
        fill: none;
        stroke: #000;
        stroke-width: 3px;
      }

      .cls-1, .cls-2, .cls-4 {
        fill-rule: evenodd;
      }

      .cls-2 {
        stroke-dasharray: 6 6;
      }

      .cls-4 {
        stroke-dasharray: 12 6;
      }
    </style>
  </defs>
  <path class="cls-1" d="M39.9,639V853.462H326"/>
  <path class="cls-1" d="M50.423,776.184s57.644-6.9,120.65-51.8c13.189-9.4,28.368-18.31,40.927-30.379,13.868-13.327,25.2-29.788,36.119-47.309"/>
  <path class="cls-1" d="M233.429,653.3s18.479-11.061,20.4-9.611-2.521,12.653.174,18.952"/>
  <path class="cls-1" d="M889.089,1130s64.786,1.94,92.094-81.6c16.7-51.1,31.577-87.217,60.107-85.964,21.19,0.931,36.91,29.142,49.92,85.964,15.26,66.67,75.85,83.41,88.7,83.41"/>
  <path class="cls-1" d="M975.682,1068.85v65.51"/>
  <path class="cls-1" d="M1016.53,977.145V1134.36"/>
  <path class="cls-1" d="M1057.37,971.686V1134.36"/>
  <path class="cls-1" d="M1098.22,1078.68v55.14"/>
  <path class="cls-1" d="M891.268,910v222.72H1181"/>
  <path class="cls-1" d="M1794.78,750.98l-95.05-204.053-93.83,209.54"/>
  <path class="cls-1" d="M1801,749.273s-76.03,69.754-201.01,5.613C1599.99,754.886,1697.09,654.428,1801,749.273Z"/>
  <path class="cls-2" d="M1697.54,744.092V541.764"/>
  <path class="cls-1" d="M1687.97,565.436s10.57,8.644,22.36-.773"/>
  <path class="cls-2" d="M1608.58,751.062l183.46-4.64"/>
  <g id="decistion_tree" data-name="decistion tree">
    <path class="cls-1" d="M1826.32,250.6l55.89,0.747-1.49-33.6L1829.3,217Z"/>
    <path class="cls-1" d="M1771.92,308.851V282.714l169.91-.747-1.49,26.137"/>
    <path class="cls-1" d="M1852.4,250.6l0.75,47.792"/>
    <path class="cls-1" d="M1739.87,314.825h61.86l-1.49,33.6-63.35-1.493Z"/>
    <path class="cls-1" d="M1838.24,311.838l47.7-.747v32.857l-48.44-.747-0.75-32.11"/>
    <path class="cls-1" d="M1912.76,313.331l60.37,0.747,2.98,35.1-63.35.747V313.331Z"/>
    <path class="cls-1" d="M1762.23,349.922l-0.75,27.63"/>
    <path class="cls-1" d="M1705.59,403.688l1.49-25.389,91.67,2.24L1798,396.221"/>
    <path class="cls-1" d="M1681,412.649h49.93l-0.75,32.857L1681.75,447Z"/>
    <path class="cls-1" d="M1770.43,405.928h39.49v32.111l-41.73.747Z"/>
    <path class="cls-1" d="M1842.71,379.792l43.23,1.494-0.75,29.123h-43.22Z"/>
    <path class="cls-1" d="M1903.82,405.928h41.73l-0.74,31.364h-40.99V405.928Z"/>
    <path class="cls-1" d="M1981.32,411.156l50.68,1.493v33.6l-50.68-1.493v-33.6Z"/>
    <path class="cls-1" d="M1950.03,346.935l2.23,30.617"/>
    <path class="cls-1" d="M1917.24,394.727V378.3l88.68,1.493,2.23,23.149"/>
    <path class="cls-1" d="M1862.09,340.961l0.74,38.831"/>
  </g>
  <path class="cls-1" d="M1829,925.584l19.84-49.1a54.144,54.144,0,0,1,36.7,0l15.72,34.482"/>
  <circle class="cls-3" cx="1866.045" cy="858.5" r="13.485"/>
  <path id="Shape_7_copy" data-name="Shape 7 copy" class="cls-1" d="M1884.41,955.193l14.98-44.227a54.117,54.117,0,0,1,36.69,0l15.73,46.1"/>
  <circle id="Ellipse_1_copy" data-name="Ellipse 1 copy" class="cls-3" cx="1916.625" cy="892.969" r="13.465"/>
  <path id="Shape_7_copy_2" data-name="Shape 7 copy 2" class="cls-1" d="M1928.97,892.226l5.61-13.868a54.12,54.12,0,0,1,36.69,0L1987,931.206"/>
  <circle id="Ellipse_1_copy_2" data-name="Ellipse 1 copy 2" class="cls-3" cx="1951.795" cy="860.36" r="13.485"/>
  <path id="Polygon_1_copy_2" data-name="Polygon 1 copy 2" class="cls-1" d="M1556.01,349.664a84.979,84.979,0,0,1-60.28,61.2c-0.17.045-.33,0.084-0.5,0.128l-18.89-80.082,0.48-.014v0Z"/>
  <path id="Polygon_1_copy" data-name="Polygon 1 copy" class="cls-1" d="M1462.49,317.153l20.32,86.185a85.1,85.1,0,1,1,65.15-65.917Z"/>
  <path class="cls-1" d="M1391.88,277.138L1457.64,235"/>
  <path id="Shape_17_copy" data-name="Shape 17 copy" class="cls-1" d="M1385.93,293.049c25.07-15.979,61.74-39.348,88.61-56.471"/>
  <path id="Shape_17_copy_3" data-name="Shape 17 copy 3" class="cls-1" d="M1381.32,322.76c20.67-13.172,66.81-42.575,122.12-77.828"/>
  <path id="Shape_17_copy_2" data-name="Shape 17 copy 2" class="cls-1" d="M1382.33,308.727c27.2-17.332,77.71-49.521,108.09-68.882"/>
  <path id="Shape_17_copy_4" data-name="Shape 17 copy 4" class="cls-1" d="M1383.51,335.391c23.98-15.279,98.85-63,130.25-83.009"/>
  <path id="Shape_17_copy_5" data-name="Shape 17 copy 5" class="cls-1" d="M1386.36,347.793s100.86-65.11,136.14-87.593"/>
  <path id="Shape_17_copy_6" data-name="Shape 17 copy 6" class="cls-1" d="M1390.19,359.261l141.71-90.636"/>
  <path id="Shape_17_copy_7" data-name="Shape 17 copy 7" class="cls-1" d="M1396.97,366.947l66.23-42.077m11.85-7.529,61.94-39.352"/>
  <path id="Shape_17_copy_8" data-name="Shape 17 copy 8" class="cls-1" d="M1402.91,376.311s30.29-19.051,62.57-39.349m25.23-15.865c27.56-17.337,50.94-32.041,50.94-32.041"/>
  <path class="cls-1" d="M1450.86,618.071"/>
  <path id="Shape_17_copy_9" data-name="Shape 17 copy 9" class="cls-1" d="M1411.88,384.251c10.05-6.4,32.17-20.5,56.23-35.833m37.16-23.684c16.08-10.246,30.62-19.515,40.35-25.715"/>
  <path id="Shape_17_copy_11" data-name="Shape 17 copy 11" class="cls-1" d="M1422.11,391.124c10.72-6.835,29.02-18.494,48.97-31.211m49.58-31.6c10.33-6.586,19.68-12.541,27.03-17.225"/>
  <path id="Shape_17_copy_13" data-name="Shape 17 copy 13" class="cls-1" d="M1433.92,396.982c10.2-6.5,24.46-15.589,39.94-25.452m61.88-39.439,11.65-7.422"/>
  <path id="Shape_17_copy_14" data-name="Shape 17 copy 14" class="cls-1" d="M1448.31,401c10.2-6.5,12.1-7.587,27.58-17.451"/>
  <path class="cls-1" d="M1052.49,360.5c-4.45,5.148-6.74,14.033-4.8,20.962,2.81,8.59,10.89,13.535,19.49,13.535,12.59,0,21.16-7.66,21.82-20.671,0.11-4.233-4.14-21.209-22.98-20.293A30.05,30.05,0,0,0,1052.49,360.5Z"/>
  <path id="Shape_85_copy_3" data-name="Shape 85 copy 3" class="cls-1" d="M1139.45,230.233c-3.6,4.144-5.46,11.295-3.89,16.872,2.27,6.914,8.81,10.894,15.78,10.894,10.19,0,17.12-6.165,17.66-16.637,0.09-3.407-3.35-17.071-18.6-16.334A24.285,24.285,0,0,0,1139.45,230.233Z"/>
  <path id="Shape_85_copy_4" data-name="Shape 85 copy 4" class="cls-1" d="M1180.1,328.026c-4.13,4.772-6.26,13.006-4.46,19.429,2.61,7.961,10.11,12.544,18.1,12.544,11.69,0,19.65-7.1,20.26-19.158,0.1-3.924-3.84-19.658-21.34-18.809A27.9,27.9,0,0,0,1180.1,328.026Z"/>
  <path id="Shape_85_copy_5" data-name="Shape 85 copy 5" class="cls-1" d="M1105.41,297.612c-5.19,6.027-7.86,16.429-5.6,24.541,3.27,10.056,12.7,15.846,22.74,15.846,14.68,0,24.68-8.968,25.45-24.2,0.13-4.956-4.83-24.831-26.81-23.758A34.955,34.955,0,0,0,1105.41,297.612Z"/>
  <path class="cls-1" d="M1142,323c6.24,0,29.1,8.528,37,12"/>
  <path class="cls-1" d="M1144,306c8.25-6.189,37-24,37-24"/>
  <path class="cls-1" d="M1131,294q6-20.5,12-41"/>
  <path class="cls-1" d="M1108,299c-9.15-7.539-34.26-25.153-39-32"/>
  <path class="cls-1" d="M1109,329c-3.18,6.358-28,34-28,34"/>
  <path id="Shape_85_copy" data-name="Shape 85 copy" class="cls-1" d="M1050.79,246.6a17.658,17.658,0,0,0-3.31,14.827A13.863,13.863,0,0,0,1060.94,271c8.69,0,14.6-5.418,15.06-14.621,0.08-2.994-2.86-15-15.87-14.353A20.529,20.529,0,0,0,1050.79,246.6Z"/>
  <path id="Shape_85_copy_2" data-name="Shape 85 copy 2" class="cls-1" d="M1202.21,266.6a17.658,17.658,0,0,1,3.31,14.827A13.863,13.863,0,0,1,1192.06,291c-8.69,0-14.6-5.418-15.06-14.621-0.08-2.994,2.86-15,15.87-14.353A20.529,20.529,0,0,1,1202.21,266.6Z"/>
  <path id="Rectangle_1_copy_10" data-name="Rectangle 1 copy 10" class="cls-1" d="M143,310h21l-1,48H143V310Z"/>
  <path class="cls-1" d="M92,309v29"/>
  <path class="cls-1" d="M92,408l3,81"/>
  <path class="cls-1" d="M212,406l3,52"/>
  <path id="Shape_33_copy_2" data-name="Shape 33 copy 2" class="cls-1" d="M183,398l1,23.914"/>
  <path id="Shape_33_copy_3" data-name="Shape 33 copy 3" class="cls-1" d="M180,287l1,23.914"/>
  <path id="Shape_33_copy_6" data-name="Shape 33 copy 6" class="cls-1" d="M155,287l1,23.914"/>
  <path id="Shape_33_copy_7" data-name="Shape 33 copy 7" class="cls-1" d="M154,358l1,23.914"/>
  <path id="Shape_33_copy_5" data-name="Shape 33 copy 5" class="cls-1" d="M122,361l1,23.914"/>
  <path id="Shape_33_copy_4" data-name="Shape 33 copy 4" class="cls-1" d="M121,260l1,73.914"/>
  <path id="Shape_33_copy" data-name="Shape 33 copy" class="cls-1" d="M210,335l3,52"/>
  <path class="cls-1" d="M302,477l-1,23"/>
  <path id="Shape_38_copy_3" data-name="Shape 38 copy 3" class="cls-1" d="M243,357l-1,23"/>
  <path id="Shape_38_copy_4" data-name="Shape 38 copy 4" class="cls-1" d="M242,438l-1,23"/>
  <path class="cls-1" d="M302,530l2,19"/>
  <path class="cls-1" d="M327,392l1-20"/>
  <path class="cls-1" d="M328,499v22"/>
  <path class="cls-1" d="M365,317l-2-58"/>
  <path class="cls-1" d="M391,289l-2-41"/>
  <path class="cls-1" d="M392,356l1,11"/>
  <path id="Shape_46_copy" data-name="Shape 46 copy" class="cls-1" d="M366,394l1,11"/>
  <path class="cls-1" d="M241.465,438.03l7.424-8.485"/>
  <path class="cls-1" d="M234.394,436.263l13.788-13.435"/>
  <path class="cls-1" d="M232.98,429.9l14.848-10.96"/>
  <path class="cls-1" d="M232.98,423.182l14.848-10.253"/>
  <path class="cls-1" d="M232.273,416.465l14.848-8.839"/>
  <path class="cls-1" d="M234.04,409.747L250.3,399.141"/>
  <path class="cls-1" d="M233.333,405.505l16.616-11.667"/>
  <path class="cls-1" d="M232.273,401.263l19.091-13.788"/>
  <path class="cls-1" d="M234.394,390.606l15.2-9.192"/>
  <path id="Shape_71_copy" data-name="Shape 71 copy" class="cls-1" d="M386.353,355.252L399.7,343.626"/>
  <path class="cls-1" d="M384.353,350.252L397.7,338.626"/>
  <path class="cls-1" d="M384.353,343.118l13.608-10.57"/>
  <path class="cls-1" d="M382.806,337.926l14.137-13.74"/>
  <path class="cls-1" d="M382.692,329.584q8.059-6.143,16.119-12.287"/>
  <path class="cls-1" d="M384.22,320.978q7.4-6.671,14.8-13.344"/>
  <path class="cls-1" d="M382.956,314.051l17.309-16.515"/>
  <path class="cls-1" d="M384.22,306.313l15.988-14.137"/>
  <path class="cls-1" d="M382.635,299.632l13.477-12.948"/>
  <path id="Shape_71_copy_2" data-name="Shape 71 copy 2" class="cls-1" d="M174.454,395.6L190.4,383.963"/>
  <path id="Shape_71_copy_2-2" data-name="Shape 71 copy 2" class="cls-1" d="M172.064,390.593l15.946-11.632"/>
  <path id="Shape_72_copy" data-name="Shape 72 copy" class="cls-1" d="M172.064,383.455l16.262-10.574"/>
  <path id="Shape_73_copy" data-name="Shape 73 copy" class="cls-1" d="M170,378.681l18.889-13.666"/>
  <path id="Shape_74_copy" data-name="Shape 74 copy" class="cls-1" d="M170.08,369.916l19.261-12.293"/>
  <path id="Shape_75_copy" data-name="Shape 75 copy" class="cls-1" d="M170.906,362.306l17.683-13.35"/>
  <path id="Shape_76_copy" data-name="Shape 76 copy" class="cls-1" d="M170.4,356.376l20.682-16.523"/>
  <path id="Shape_77_copy" data-name="Shape 77 copy" class="cls-1" d="M171.906,346.634l19.1-14.143"/>
  <path id="Shape_78_copy" data-name="Shape 78 copy" class="cls-1" d="M170.014,339.712L188.8,327"/>
  <path id="Shape_78_copy_2" data-name="Shape 78 copy 2" class="cls-1" d="M170.014,332.712L188.8,320"/>
  <path id="Shape_78_copy_3" data-name="Shape 78 copy 3" class="cls-1" d="M170.014,323.712L188.8,311"/>
  <path id="Shape_48_copy_2" data-name="Shape 48 copy 2" class="cls-1" d="M231.759,380.577c0,19.974-.759,40.986-0.759,60.423l18.481-.577Q250.24,410.215,251,380l-20,.385Z"/>
  <path id="Shape_48_copy_4" data-name="Shape 48 copy 4" class="cls-1" d="M354.759,314.767c0,26.522-.759,54.423-0.759,80.233l18.481-.767Q373.24,354.122,374,314l-20,.511Z"/>
  <path id="Shape_48_copy_7" data-name="Shape 48 copy 7" class="cls-1" d="M382.759,287.672c0,23.248-.759,47.7-0.759,70.328l18.481-.672Q401.24,322.168,402,287l-20,.448Z"/>
  <path id="Shape_48_copy_6" data-name="Shape 48 copy 6" class="cls-1" d="M110.759,333.274c0,9.5-.759,19.485-0.759,28.726l18.481-.274Q129.24,347.364,130,333l-20,.183Z"/>
  <path class="cls-1" d="M119.5,359.5l7.167-4.5"/>
  <path class="cls-1" d="M113.5,359.5L127,348.833"/>
  <path class="cls-1" d="M112,355l14.667-11.5"/>
  <path class="cls-1" d="M112.333,348.667L125.667,339"/>
  <path class="cls-1" d="M112.167,343l10.333-9.167"/>
  <path class="cls-4" d="M137,204c0,99.782,3,208.4,3,313"/>
  <path id="Shape_84_copy" data-name="Shape 84 copy" class="cls-1" d="M347,229c0,99.782,3,208.4,3,313"/>
  <path id="Shape_48_copy_5" data-name="Shape 48 copy 5" class="cls-1" d="M82.76,335.71C82.76,360.268,82,386.1,82,410l18.481-.71Q101.24,372.149,102,335l-20,.473Z"/>
  <path id="Shape_48_copy_3" data-name="Shape 48 copy 3" class="cls-1" d="M201.759,384.227c0,7.859-.759,16.125-0.759,23.773l18.481-.227Q220.24,395.887,221,384l-20,.151Z"/>
  <path class="cls-1" d="M317.7,392.416c0.465,19.816-1.071,39.638-.606,59.454-0.681,10.372-1.911,23.382.7,33.974,0.7,4.718-1.394,9.438-.7,14.156,6.969-.944,15.94-1.888,22.909-2.831V483.013c0-20.937-1.091-43.374-1.091-65.825-1.626-8.256.626-16.516-1-24.772-5.343-.472-15.566-0.944-20.909-1.416Z"/>
  <path id="Shape_47_copy_2" data-name="Shape 47 copy 2" class="cls-1" d="M191.479,399.818c-0.469-16.544,1.079-33.092.61-49.636,0.687-8.659,1.926-19.521-.7-28.364-0.7-3.939,1.405-7.879.7-11.818-7.023.788-16.065,1.576-23.089,2.364v11.818c0,17.48,1.1,36.211,1.1,54.954,1.639,6.894-.631,13.789,1.008,20.682,5.385,0.394,15.689.788,21.074,1.182Z"/>
  <path id="Shape_33_copy_8" data-name="Shape 33 copy 8" class="cls-1" d="M274.833,535.593l0.917,27.273"/>
  <path id="Shape_33_copy_8-2" data-name="Shape 33 copy 8" class="cls-1" d="M272.083,409L273,436.273"/>
  <path id="Shape_71_copy_3" data-name="Shape 71 copy 3" class="cls-1" d="M267,532.85l14.617-13.265"/>
  <path id="Shape_71_copy_3-2" data-name="Shape 71 copy 3" class="cls-1" d="M264.809,527.145l14.617-13.265"/>
  <path id="Shape_72_copy_2" data-name="Shape 72 copy 2" class="cls-1" d="M264.809,519.005l14.906-12.06"/>
  <path id="Shape_73_copy_2" data-name="Shape 73 copy 2" class="cls-1" d="M262.914,513.56l17.315-15.586"/>
  <path id="Shape_74_copy_2" data-name="Shape 74 copy 2" class="cls-1" d="M262.99,503.564l17.656-14.02"/>
  <path id="Shape_75_copy_2" data-name="Shape 75 copy 2" class="cls-1" d="M263.748,494.885l16.208-15.226"/>
  <path id="Shape_76_copy_2" data-name="Shape 76 copy 2" class="cls-1" d="M263.279,488.121l18.959-18.843"/>
  <path id="Shape_77_copy_2" data-name="Shape 77 copy 2" class="cls-1" d="M264.664,477.011l17.512-16.13"/>
  <path id="Shape_78_copy_4" data-name="Shape 78 copy 4" class="cls-1" d="M262.929,469.116l17.222-14.5"/>
  <path id="Shape_78_copy_4-2" data-name="Shape 78 copy 4" class="cls-1" d="M262.929,461.133l17.222-14.5"/>
  <path id="Shape_78_copy_4-3" data-name="Shape 78 copy 4" class="cls-1" d="M262.929,450.869l17.222-14.5"/>
  <path id="Shape_47_copy_3" data-name="Shape 47 copy 3" class="cls-1" d="M282.605,537.667c-0.429-18.868.99-37.742,0.56-56.61,0.629-9.875,1.766-22.262-.644-32.348-0.643-4.492,1.288-8.986.644-13.478-6.438.9-14.726,1.8-21.165,2.7v13.478c0,19.935,1.008,41.3,1.008,62.674,1.5,7.862-.579,15.726.924,23.588,4.936,0.449,14.381.9,19.317,1.347Q282.928,538.341,282.605,537.667Z"/>
  <path id="Shape_47_copy" data-name="Shape 47 copy" class="cls-1" d="M313.508,529.61c-0.469-5.454,1.081-10.909.612-16.363,0.635-2.638-2.511-17.882,0-13.247-7.033.26-16.087,0.52-23.12,0.779v3.9c0,5.763,1.1,11.938,1.1,18.117,1.641,2.273-.632,4.546,1.009,6.818,5.392,0.13,15.71.26,21.1,0.39Z"/>
  <path id="Shape_47_copy_4" data-name="Shape 47 copy 4" class="cls-1" d="M276.1,701.883c-0.585,26.361,1.349,52.73.764,79.091,1.5,24.159-.6,68.344,0,64.026-8.78-1.255-20.082.749-28.862-.506V822.4c0-27.853,1.374-57.7,1.374-87.565,0.049-10.984-1.788-22.971.26-33.955,6.731-.628,20.611-0.255,27.342-0.883Q276.538,700.942,276.1,701.883Z"/>
  <path id="Shape_47_copy_5" data-name="Shape 47 copy 5" class="cls-1" d="M197.319,725.568c0.577,21.956-1.329,43.917-.752,65.873-1.48,20.121.595,56.921,0,53.325,8.649-1.046,19.784.624,28.433-.422v-18.4c0-23.2-1.354-48.056-1.354-72.93-0.048-9.148,1.762-19.131-.256-28.279-6.631-.523-20.3-0.213-26.936-0.736Z"/>
  <path id="Shape_47_copy_6" data-name="Shape 47 copy 6" class="cls-1" d="M148.319,843.782c0.577-17.057-1.329-34.118-.752-51.174-1.48-15.631.595-44.22,0-41.426,8.649,0.812,19.784-.485,28.433.327V765.8c0,18.021-1.354,37.333-1.354,56.656-0.048,7.107,1.762,14.863-.256,21.97-6.631.406-20.3,0.165-26.936,0.571Z"/>
  <path id="Shape_47_copy_7" data-name="Shape 47 copy 7" class="cls-1" d="M129.681,845.054c-0.577-13.246,1.329-26.5.752-39.741,1.48-12.139-.595-34.341,0-32.172-8.649.631-19.784-.376-28.433,0.255v11.1c0,14,1.354,28.992,1.354,44,0.048,5.519-1.762,11.542.256,17.061,6.631,0.316,20.305.129,26.936,0.444Q130.113,845.527,129.681,845.054Z"/>
  <path id="Shape_47_copy_8" data-name="Shape 47 copy 8" class="cls-1" d="M88.681,794.661c-0.577,9.254,1.329,18.511.752,27.764,1.48,8.481-.595,23.992,0,22.476-8.649-.44-19.784.263-28.433-0.177v-7.755c0-9.778,1.354-20.255,1.354-30.739,0.048-3.856-1.762-8.064.256-11.92,6.631-.22,20.3-0.09,26.936-0.31Z"/>
</svg>
